<svg width="32" height="32" viewBox="0 0 32 32" fill="none" xmlns="http://www.w3.org/2000/svg">
<g clip-path="url(#clip0)">
<path fill-rule="evenodd" clip-rule="evenodd" d="M14.8373 5.86076C15.5874 6.19081 16.4276 6.19081 17.1627 5.86076C17.6127 5.66573 18.0178 5.41069 18.4379 5.18566C19.6381 4.52555 21.4834 3.49039 22.8786 3.49039C24.7239 3.49039 26.4041 4.2405 27.6343 5.62072C28.8645 7.00093 29.5096 8.80122 29.5096 10.6465C29.5096 14.4271 27.8893 19.2278 26.3891 22.6784C25.654 24.3737 24.8139 26.0989 23.7637 27.6142C23.5987 27.8542 23.1636 28.4543 22.7886 28.8293C22.4735 27.8842 22.2185 26.909 21.9484 25.9489C21.6334 24.7937 21.3333 23.6385 20.9433 22.4984L22.9536 20.6981C24.3338 19.4679 25.3089 17.8476 25.744 16.0473C25.909 15.3722 26.0141 14.5321 25.909 13.827C25.699 11.6667 24.5738 9.62634 22.6085 8.62119C21.8434 8.23113 20.9883 8.0211 20.1331 8.0211C18.5129 8.0211 16.9976 8.71121 15.9175 9.89639C14.8673 8.72621 13.3971 8.0211 11.7918 8.0211C10.9217 8.0211 10.0816 8.21612 9.31645 8.62119C7.35115 9.62634 6.22597 11.6667 6.01594 13.827C5.91092 14.5171 6.03094 15.3722 6.18096 16.0473C6.60103 17.8476 7.59118 19.4529 8.95639 20.6981L10.9967 22.5584C10.5766 23.7886 10.2616 25.0038 10.0066 25.8889C9.72152 26.879 9.45147 27.8842 9.12142 28.8594C8.73136 28.4843 8.29629 27.8842 8.13127 27.6442C7.09611 26.1439 6.25597 24.4337 5.52086 22.7684C3.99062 19.2578 2.41537 14.4871 2.41537 10.6315C2.41537 8.78621 3.04547 6.98593 4.29067 5.60572C5.52086 4.2255 7.20112 3.47538 9.04641 3.47538C10.4566 3.47538 12.2869 4.49554 13.5021 5.17065C13.9972 5.42569 14.4022 5.66573 14.8373 5.86076ZM20.0431 20.218C19.263 18.6278 18.0328 17.0675 16.0675 17.0675H15.9475C14.1622 17.0675 12.917 18.4927 12.0169 20.278L10.6067 18.9878C9.5865 18.0577 8.85138 16.8875 8.53633 15.5373C8.43131 15.0722 8.3713 14.6221 8.40131 14.1721C8.40131 14.1571 8.40131 14.127 8.40131 14.112C8.52133 12.7318 9.22644 11.3366 10.5166 10.7215C10.9367 10.5265 11.3718 10.4215 11.8368 10.4215C13.2321 10.4215 14.3422 11.3066 14.8673 12.5668L15.0173 12.9119C15.1824 13.2869 15.5424 13.527 15.9475 13.527C16.3525 13.527 16.7276 13.2869 16.8776 12.9119L17.0277 12.5668C17.5677 11.2916 18.7829 10.4215 20.1631 10.4215C20.6132 10.4215 21.0483 10.5115 21.4533 10.7065C22.7736 11.3216 23.4787 12.7468 23.5987 14.1421C23.5987 14.1571 23.5987 14.1871 23.5987 14.2021C23.6587 14.5771 23.5537 15.1772 23.4637 15.5373C23.1486 16.8725 22.4285 18.0727 21.3933 18.9878L20.0431 20.218ZM18.948 24.3436L16.6376 26.414C16.2475 26.759 15.6624 26.759 15.2874 26.414L13.112 24.4487C12.827 25.3788 12.617 26.1889 12.4819 26.609C12.1519 27.7792 11.8218 28.9644 11.4018 30.1045C11.0867 30.9747 10.4416 31.6648 9.46647 31.6648C8.07126 31.6648 6.87107 30.1195 6.15096 29.0994C5.02578 27.4791 4.09563 25.6038 3.30051 23.7886C1.65025 19.978 0 14.8472 0 10.6615C0 8.20112 0.855131 5.81575 2.50539 3.97046C4.21566 2.06517 6.55602 1 9.12142 1C11.1017 1 13.097 2.06517 14.7773 3.01031C15.0173 3.14534 15.5124 3.44538 15.8575 3.5954C15.9475 3.64041 16.0525 3.64041 16.1425 3.5954C16.4876 3.44538 16.9977 3.14534 17.2377 3.01031C18.918 2.08017 20.9133 1 22.8786 1C25.444 1 27.7843 2.05016 29.4946 3.97046C31.1299 5.81575 32 8.20112 32 10.6615C32 14.7872 30.3047 19.933 28.6845 23.6835C27.8893 25.4988 26.9592 27.4041 25.834 29.0394C25.1289 30.0745 23.9137 31.6498 22.5185 31.6498C21.5434 31.6498 20.9133 30.9597 20.5982 30.0895C20.1932 28.9644 19.8781 27.7792 19.5631 26.624C19.383 25.8889 19.173 25.1238 18.948 24.3436ZM15.9625 23.8636L18.1078 21.9583C18.0328 21.7782 17.9578 21.6132 17.8828 21.4482C17.5827 20.8181 16.9226 19.5579 16.0825 19.5579H15.9625C15.2274 19.5579 14.5373 20.6831 13.9672 22.0333L15.9625 23.8636Z" fill="#5D4FFF"/>
</g>
<defs>
<clipPath id="clip0">
<rect width="32" height="32" fill="white"/>
</clipPath>
</defs>
</svg>
