<svg width="135" height="148" viewBox="0 0 135 148" fill="none" xmlns="http://www.w3.org/2000/svg">
<g clip-path="url(#clip0_405_190)">
<path d="M0.801346 35.6714C1.80135 44.8714 6.00135 64.3714 21.9014 80.3714C23.6014 82.0714 24.2013 84.5714 23.2013 86.6714C22.9013 87.2714 22.5013 87.8714 22.0013 88.3714C22.0013 88.3714 -0.198657 110.771 0.00134329 134.371C0.00134329 138.671 1.90135 142.871 5.40135 145.371C7.70135 147.071 10.9013 148.171 15.0013 147.071C19.9013 145.771 23.6013 141.771 25.0013 136.771C27.9013 125.871 37.1013 100.771 59.7013 98.4714C59.7013 98.4714 86.2013 94.4714 97.2013 121.771C97.2013 121.771 100.501 130.371 102.201 135.771C103.601 139.971 106.501 143.671 110.501 145.871C114.301 147.971 119.201 148.671 123.701 143.471C127.001 139.771 128.201 134.571 127.401 129.671C125.801 120.371 121.001 102.371 107.501 87.2714C105.501 85.0714 105.401 81.7714 107.301 79.4714C114.801 70.3714 131.201 47.8714 127.001 29.8714C124.801 20.2714 112.601 16.5714 105.801 23.7714C105.601 24.038 105.401 24.2714 105.201 24.4714C103.201 26.8714 102.001 29.7714 101.401 32.7714C99.9014 40.4714 93.3013 65.0714 69.6013 68.5714C69.6013 68.5714 48.3014 71.4714 39.9014 59.8714C39.9014 59.8714 30.7013 49.5714 25.1013 31.0714C23.7013 26.3714 20.1013 22.3714 15.3013 20.9714C11.9013 19.9714 8.00134 20.1714 4.50134 23.8714C1.50134 27.0714 0.301346 31.3714 0.801346 35.6714Z" fill="url(#paint0_linear_405_190)"/>
</g>
<path d="M126.5 0C125.384 0 124.278 0.219859 123.247 0.647024C122.216 1.07419 121.279 1.70029 120.49 2.48959C118.896 4.08365 118 6.24566 118 8.5C118 10.7543 118.896 12.9163 120.49 14.5104C121.279 15.2997 122.216 15.9258 123.247 16.353C124.278 16.7801 125.384 17 126.5 17C128.754 17 130.916 16.1045 132.51 14.5104C134.104 12.9163 135 10.7543 135 8.5C135 7.38376 134.78 6.27846 134.353 5.24719C133.926 4.21592 133.3 3.27889 132.51 2.48959C131.721 1.70029 130.784 1.07419 129.753 0.647024C128.722 0.219859 127.616 0 126.5 0ZM126.5 15.3C122.752 15.3 119.7 12.2485 119.7 8.5C119.7 4.7515 122.752 1.7 126.5 1.7C130.248 1.7 133.3 4.7515 133.3 8.5C133.3 12.2485 130.248 15.3 126.5 15.3ZM126.713 9.5795H125.489V12.325H123.95V4.8535H126.721C127.597 4.8535 128.276 5.049 128.761 5.44C129.237 5.8395 129.475 6.375 129.475 7.106C129.475 7.616 129.365 8.041 129.144 8.381C128.922 8.721 128.591 8.993 128.141 9.1885L129.755 12.24V12.325H128.107L126.713 9.5795ZM125.489 8.3385H126.73C127.112 8.3385 127.41 8.2365 127.622 8.041C127.835 7.8455 127.936 7.5735 127.936 7.225C127.936 6.8765 127.843 6.6045 127.639 6.4005C127.444 6.1965 127.138 6.103 126.721 6.103H125.489V8.3385Z" fill="#519CE6"/>
<defs>
<linearGradient id="paint0_linear_405_190" x1="115" y1="20" x2="115" y2="124" gradientUnits="userSpaceOnUse">
<stop stop-color="#FF00FF"/>
<stop offset="1" stop-color="#519CE6"/>
</linearGradient>
<clipPath id="clip0_405_190">
<rect width="128" height="128" fill="white" transform="translate(0 20)"/>
</clipPath>
</defs>
</svg>
