<svg width="113" height="113" viewBox="0 0 113 113" fill="none" xmlns="http://www.w3.org/2000/svg">
<rect width="112.691" height="112.691" fill="white"/>
<path d="M90.6979 49.2364C90.6982 48.9804 90.6299 48.7291 90.5001 48.5085C90.3702 48.2879 90.1836 48.1062 89.9597 47.9823C89.7358 47.8583 89.4827 47.7967 89.2269 47.8038C88.971 47.8109 88.7218 47.8864 88.505 48.0226L63.17 65.6455C61.1209 66.9175 58.7571 67.5916 56.3453 67.5916C53.9335 67.5916 51.5696 66.9175 49.5206 65.6455L24.1798 48.0226C23.9644 47.8859 23.7161 47.81 23.4611 47.8029C23.206 47.7959 22.9539 47.8579 22.7313 47.9825C22.5069 48.1059 22.3199 48.2875 22.1899 48.5081C22.06 48.7287 21.9918 48.9803 21.9927 49.2364V73.5065C21.9927 75.7842 22.8975 77.9686 24.5081 79.5792C26.1187 81.1898 28.3031 82.0946 30.5808 82.0946H82.1097C84.3874 82.0946 86.5719 81.1898 88.1825 79.5792C89.7931 77.9686 90.6979 75.7842 90.6979 73.5065V49.2364Z" fill="#5D4FFF"/>
<path d="M90.6979 39.1842C90.6979 36.9065 89.7931 34.7221 88.1825 33.1115C86.5719 31.5009 84.3875 30.5961 82.1097 30.5961H30.5808C28.3031 30.5961 26.1187 31.5009 24.5081 33.1115C22.8975 34.7221 21.9927 36.9065 21.9927 39.1842C21.992 39.2565 22.0102 39.3278 22.0453 39.391C22.0804 39.4542 22.1313 39.5073 22.1931 39.5449L54.0551 61.2558C54.7374 61.6799 55.5247 61.9046 56.3281 61.9046C57.1315 61.9046 57.9188 61.6799 58.6011 61.2558L90.4803 39.5449C90.5445 39.5086 90.5983 39.4563 90.6364 39.3931C90.6745 39.3299 90.6957 39.258 90.6979 39.1842V39.1842Z" fill="#5D4FFF"/>
</svg>
