<svg width="19" height="19" viewBox="0 0 19 19" fill="none" xmlns="http://www.w3.org/2000/svg">
<path d="M15.8752 11.451C15.6605 11.2363 15.4057 11.066 15.1252 10.9498C14.8447 10.8336 14.5441 10.7738 14.2405 10.7738C13.9369 10.7738 13.6363 10.8336 13.3558 10.9498C13.0753 11.066 12.8205 11.2363 12.6058 11.451L12.2498 11.807C10.3128 10.1825 8.52185 8.39153 6.89737 6.45454L7.25334 6.09857C7.68555 5.66451 7.9282 5.0769 7.9282 4.46435C7.9282 3.85181 7.68555 3.2642 7.25334 2.83014L5.29135 0.868151C5.07671 0.653445 4.82186 0.483128 4.54138 0.366927C4.2609 0.250726 3.96027 0.190918 3.65667 0.190918C3.35308 0.190918 3.05245 0.250726 2.77197 0.366927C2.49149 0.483128 2.23664 0.653445 2.02199 0.868151L0.946694 1.94438C0.422324 2.47276 0.0955444 3.16535 0.0211393 3.90603C-0.0532658 4.64671 0.129228 5.39046 0.538024 6.01258C3.73754 10.8331 7.86852 14.9654 12.6881 18.1663C13.3121 18.5697 14.0547 18.7489 14.794 18.6744C15.5332 18.6 16.2252 18.2764 16.7563 17.7568L17.8325 16.6815C18.0472 16.4668 18.2175 16.212 18.3337 15.9315C18.45 15.651 18.5098 15.3504 18.5098 15.0468C18.5098 14.7432 18.45 14.4426 18.3337 14.1621C18.2175 13.8816 18.0472 13.6267 17.8325 13.4121L15.8752 11.451Z" fill="#5D4FFF"/>
</svg>
