<svg width="180" height="174" viewBox="0 0 180 174" fill="none" xmlns="http://www.w3.org/2000/svg">
<path fill-rule="evenodd" clip-rule="evenodd" d="M83.4599 28.2653C87.6793 30.1219 92.405 30.1219 96.5401 28.2653C99.0717 27.1683 101.35 25.7337 103.713 24.4679C110.464 20.7548 120.844 14.932 128.692 14.932C139.072 14.932 148.523 19.1514 155.443 26.9151C162.363 34.6788 165.992 44.8054 165.992 55.1852C165.992 76.451 156.878 103.455 148.439 122.865C144.304 132.4 139.578 142.105 133.671 150.628C132.743 151.978 130.295 155.354 128.186 157.464C126.413 152.147 124.979 146.662 123.46 141.261C121.688 134.763 120 128.265 117.806 121.852L129.114 111.725C136.878 104.805 142.363 95.6915 144.81 85.5649C145.738 81.7675 146.329 77.0417 145.738 73.0755C144.557 60.9236 138.228 49.4468 127.173 43.7928C122.869 41.5987 118.059 40.4173 113.249 40.4173C104.135 40.4173 95.6118 44.2991 89.5358 50.9658C83.6287 44.3835 75.3586 40.4173 66.3291 40.4173C61.4346 40.4173 56.7088 41.5143 52.4051 43.7928C41.3502 49.4468 35.0211 60.9236 33.8396 73.0755C33.2489 76.9573 33.924 81.7675 34.7679 85.5649C37.1308 95.6915 42.7004 104.721 50.3797 111.725L61.8565 122.189C59.4936 129.109 57.7215 135.945 56.2869 140.924C54.6835 146.493 53.1645 152.147 51.308 157.632C49.1139 155.523 46.6666 152.147 45.7384 150.797C39.9156 142.358 35.1898 132.738 31.0548 123.371C22.4472 103.624 13.5865 76.7886 13.5865 55.1008C13.5865 44.721 17.1308 34.5945 24.135 26.8308C31.0548 19.067 40.5063 14.8476 50.8861 14.8476C58.8186 14.8476 69.1139 20.586 75.9494 24.3835C78.7342 25.8181 81.0126 27.1683 83.4599 28.2653ZM112.743 109.025C108.354 100.08 101.435 91.3033 90.3797 91.3033H89.7046C79.6624 91.3033 72.6582 99.3202 67.5949 109.362L59.6624 102.105C53.924 96.8729 49.789 90.2907 48.0169 82.6957C47.4261 80.0797 47.0886 77.548 47.2574 75.0164C47.2574 74.932 47.2574 74.7632 47.2574 74.6788C47.9325 66.9151 51.8987 59.067 59.1561 55.6071C61.519 54.5101 63.9662 53.9194 66.5823 53.9194C74.4304 53.9194 80.6751 58.8983 83.6287 65.9869L84.4726 67.9278C85.4008 70.0375 87.4261 71.3877 89.7046 71.3877C91.9831 71.3877 94.0928 70.0375 94.9367 67.9278L95.7806 65.9869C98.8185 58.8139 105.654 53.9194 113.418 53.9194C115.949 53.9194 118.397 54.4257 120.675 55.5227C128.101 58.9826 132.067 66.9995 132.743 74.8476C132.743 74.932 132.743 75.1008 132.743 75.1852C133.08 77.2949 132.489 80.6704 131.983 82.6957C130.211 90.2063 126.16 96.9573 120.338 102.105L112.743 109.025ZM106.582 132.232L93.5865 143.877C91.3924 145.818 88.1012 145.818 85.9915 143.877L73.7553 132.822C72.1519 138.054 70.9705 142.611 70.211 144.974C68.3544 151.556 66.4979 158.223 64.135 164.637C62.3629 169.531 58.7342 173.413 53.2489 173.413C45.4008 173.413 38.6498 164.721 34.5991 158.983C28.27 149.869 23.0379 139.32 18.5654 129.109C9.28267 107.675 0 78.8139 0 55.2696C0 41.4299 4.81011 28.0122 14.0928 17.6324C23.7131 6.91514 36.8776 0.923584 51.308 0.923584C62.4472 0.923584 73.6709 6.91515 83.1223 12.2316C84.4726 12.9911 87.2574 14.6789 89.1983 15.5227C89.7046 15.7759 90.2953 15.7759 90.8017 15.5227C92.7426 14.6789 95.6118 12.9911 96.962 12.2316C106.413 6.99953 117.637 0.923584 128.692 0.923584C143.122 0.923584 156.287 6.83075 165.907 17.6324C175.105 28.0122 180 41.4299 180 55.2696C180 78.4763 170.464 107.421 161.35 128.519C156.878 138.729 151.646 149.447 145.316 158.645C141.35 164.468 134.515 173.329 126.667 173.329C121.181 173.329 117.637 169.447 115.865 164.552C113.586 158.223 111.814 151.556 110.042 145.059C109.03 140.924 107.848 136.62 106.582 132.232ZM89.789 129.531L101.857 118.814C101.435 117.801 101.013 116.873 100.591 115.945C98.9029 112.4 95.1898 105.312 90.4641 105.312H89.789C85.654 105.312 81.7721 111.641 78.5654 119.236L89.789 129.531Z" fill="#5D4FFF"/>
</svg>
