<svg width="19" height="15" viewBox="0 0 19 15" fill="none" xmlns="http://www.w3.org/2000/svg">
<path d="M18.4243 5.06842C18.3684 5.0373 18.3051 5.02181 18.2412 5.02357C18.1772 5.02534 18.1149 5.04429 18.0608 5.07843L11.019 9.48295C10.5067 9.801 9.91564 9.96954 9.3126 9.96954C8.70956 9.96954 8.11852 9.801 7.60617 9.48295L0.552943 5.07843C0.498839 5.04429 0.436539 5.02534 0.372584 5.02357C0.30863 5.02181 0.24538 5.0373 0.189478 5.06842C0.133601 5.09949 0.0870324 5.14492 0.0545816 5.20001C0.0221308 5.25511 0.0049735 5.31786 0.00488281 5.3818V12.1631C0.00488168 12.7317 0.230435 13.277 0.632045 13.6794C1.03365 14.0818 1.57851 14.3085 2.14704 14.3096H16.4567C17.026 14.3096 17.5719 14.0835 17.9745 13.6809C18.377 13.2784 18.6032 12.7324 18.6032 12.1631V5.3818C18.6036 5.31843 18.5873 5.25605 18.5559 5.20101C18.5245 5.14598 18.4791 5.10023 18.4243 5.06842Z" fill="#5D4FFF"/>
<path d="M16.4561 0H2.14645C1.57718 0 1.03122 0.226143 0.62868 0.62868C0.226143 1.03122 5.00468e-08 1.57718 5.00468e-08 2.14645C-1.77765e-05 2.16466 0.00472701 2.18256 0.0137635 2.19838C0.0228 2.21419 0.0358137 2.22737 0.0515145 2.2366L8.73319 7.66282C8.90479 7.77022 9.10314 7.82717 9.30557 7.82717C9.50801 7.82717 9.70636 7.77022 9.87796 7.66282L18.5611 2.2366C18.5746 2.22587 18.5853 2.21212 18.5925 2.19646C18.5997 2.1808 18.6032 2.16367 18.6026 2.14645C18.6026 1.57718 18.3764 1.03122 17.9739 0.62868C17.5713 0.226143 17.0254 0 16.4561 0Z" fill="#5D4FFF"/>
</svg>
