<svg width="21" height="21" viewBox="0 0 21 21" fill="none" xmlns="http://www.w3.org/2000/svg">
<path d="M17.1647 12.1785C16.6883 11.7241 16.0551 11.4707 15.3967 11.4707C14.7384 11.4707 14.1052 11.7241 13.6287 12.1785L13.2437 12.5635C11.1497 10.8051 9.21275 8.86779 7.45475 6.77347L7.83975 6.38847C8.30843 5.91965 8.57172 5.28388 8.57172 4.62097C8.57172 3.95806 8.30843 3.32229 7.83975 2.85347L5.71875 0.732466C5.48659 0.50025 5.21097 0.316042 4.90761 0.190364C4.60425 0.0646863 4.27911 0 3.95075 0C3.62239 0 3.29725 0.0646863 2.99389 0.190364C2.69053 0.316042 2.4149 0.50025 2.18275 0.732466L1.01975 1.89547C0.451946 2.46655 0.0980554 3.2157 0.0175623 4.01699C-0.0629307 4.81828 0.134882 5.62285 0.577749 6.29547C4.03712 11.5101 8.50521 15.9795 13.7187 19.4405C14.3935 19.877 15.1966 20.0711 15.9962 19.9907C16.7958 19.9104 17.5443 19.5605 18.1187 18.9985L19.2827 17.8355C19.515 17.6033 19.6992 17.3277 19.8249 17.0243C19.9505 16.721 20.0152 16.3958 20.0152 16.0675C20.0152 15.7391 19.9505 15.414 19.8249 15.1106C19.6992 14.8072 19.515 14.5316 19.2827 14.2995L17.1647 12.1785Z" fill="white"/>
</svg>
