<svg width="19" height="19" viewBox="0 0 19 19" fill="none" xmlns="http://www.w3.org/2000/svg">
<path d="M15.9191 11.2601C15.7045 11.0454 15.4496 10.8751 15.1691 10.7589C14.8887 10.6427 14.588 10.5829 14.2844 10.5829C13.9808 10.5829 13.6802 10.6427 13.3997 10.7589C13.1192 10.8751 12.8644 11.0454 12.6498 11.2601L12.2938 11.6161C10.3568 9.99161 8.56579 8.20061 6.94132 6.26362L7.29728 5.90765C7.72949 5.47359 7.97215 4.88598 7.97215 4.27344C7.97215 3.66089 7.72949 3.07328 7.29728 2.63922L5.3353 0.677233C5.12065 0.462527 4.86581 0.29221 4.58533 0.176009C4.30484 0.0598085 4.00422 0 3.70062 0C3.39702 0 3.09639 0.0598085 2.81591 0.176009C2.53543 0.29221 2.28059 0.462527 2.06594 0.677233L0.990639 1.75346C0.46627 2.28184 0.13949 2.97443 0.0650846 3.71511C-0.00932045 4.4558 0.173173 5.19954 0.581969 5.82166C3.78149 10.6422 7.91247 14.7744 12.732 17.9754C13.356 18.3788 14.0986 18.558 14.8379 18.4835C15.5772 18.4091 16.2692 18.0855 16.8002 17.5658L17.8765 16.4905C18.0912 16.2759 18.2615 16.021 18.3777 15.7406C18.4939 15.4601 18.5537 15.1595 18.5537 14.8559C18.5537 14.5523 18.4939 14.2516 18.3777 13.9712C18.2615 13.6907 18.0912 13.4358 17.8765 13.2212L15.9191 11.2601Z" fill="white"/>
</svg>
