<svg width="56" height="56" viewBox="0 0 56 56" fill="none" xmlns="http://www.w3.org/2000/svg">
<rect width="56" height="56" fill="#F2F1FE"/>
<path d="M37.7177 30.952C37.0707 30.3351 36.2111 29.991 35.3171 29.991C34.4232 29.991 33.5635 30.3351 32.9165 30.952L32.3938 31.4748C29.5506 29.0873 26.9206 26.4568 24.5336 23.6132L25.0563 23.0904C25.6927 22.4539 26.0502 21.5906 26.0502 20.6905C26.0502 19.7905 25.6927 18.9272 25.0563 18.2907L22.1765 15.4108C21.8612 15.0955 21.487 14.8454 21.0751 14.6747C20.6632 14.5041 20.2217 14.4163 19.7759 14.4163C19.33 14.4163 18.8886 14.5041 18.4767 14.6747C18.0648 14.8454 17.6905 15.0955 17.3753 15.4108L15.7962 16.9899C15.0253 17.7653 14.5448 18.7825 14.4355 19.8705C14.3262 20.9585 14.5948 22.0509 15.1961 22.9642C19.8932 30.0444 25.9599 36.113 33.0387 40.8122C33.9549 41.405 35.0454 41.6685 36.1311 41.5594C37.2168 41.4503 38.2331 40.9752 39.013 40.2121L40.5935 38.633C40.9088 38.3178 41.1589 37.9435 41.3295 37.5316C41.5002 37.1198 41.588 36.6783 41.588 36.2324C41.588 35.7866 41.5002 35.3451 41.3295 34.9332C41.1589 34.5213 40.9088 34.1471 40.5935 33.8319L37.7177 30.952Z" fill="#5D4FFF"/>
</svg>
