<svg width="56" height="56" viewBox="0 0 56 56" fill="none" xmlns="http://www.w3.org/2000/svg">
<rect width="56" height="56" fill="#F2F1FE"/>
<path d="M44.6474 24.4374C44.6475 24.3118 44.614 24.1884 44.5503 24.0801C44.4865 23.9718 44.3949 23.8826 44.285 23.8217C44.175 23.7609 44.0508 23.7306 43.9252 23.7341C43.7996 23.7376 43.6772 23.7747 43.5708 23.8415L31.1325 32.4935C30.1266 33.118 28.966 33.4489 27.7819 33.4489C26.5979 33.4489 25.4373 33.118 24.4313 32.4935L11.9903 23.8415C11.8845 23.7744 11.7626 23.7371 11.6374 23.7337C11.5122 23.7302 11.3884 23.7607 11.2791 23.8218C11.169 23.8824 11.0772 23.9716 11.0134 24.0799C10.9495 24.1882 10.9161 24.3117 10.9165 24.4374V36.3529C10.9165 37.4711 11.3607 38.5436 12.1515 39.3343C12.9422 40.125 14.0146 40.5692 15.1329 40.5692H40.431C41.5493 40.5692 42.6217 40.125 43.4124 39.3343C44.2032 38.5436 44.6474 37.4711 44.6474 36.3529V24.4374Z" fill="#5D4FFF"/>
<path d="M44.6474 19.5022C44.6474 18.384 44.2032 17.3116 43.4124 16.5208C42.6217 15.7301 41.5493 15.2859 40.431 15.2859H15.1329C14.0146 15.2859 12.9422 15.7301 12.1515 16.5208C11.3607 17.3116 10.9165 18.384 10.9165 19.5022C10.9162 19.5378 10.9251 19.5727 10.9423 19.6038C10.9596 19.6348 10.9846 19.6609 11.0149 19.6793L26.6576 30.3383C26.9926 30.5465 27.3791 30.6569 27.7735 30.6569C28.1679 30.6569 28.5545 30.5465 28.8894 30.3383L44.5406 19.6793C44.5721 19.6615 44.5985 19.6358 44.6172 19.6048C44.6359 19.5738 44.6463 19.5385 44.6474 19.5022V19.5022Z" fill="#5D4FFF"/>
</svg>
