<svg width="19" height="15" viewBox="0 0 19 15" fill="none" xmlns="http://www.w3.org/2000/svg">
<path d="M18.4238 5.16363C18.3679 5.13251 18.3046 5.11703 18.2407 5.11879C18.1767 5.12055 18.1144 5.1395 18.0603 5.17365L11.0185 9.57816C10.5062 9.89622 9.91515 10.0648 9.31211 10.0648C8.70907 10.0648 8.11803 9.89622 7.60569 9.57816L0.552455 5.17365C0.498351 5.1395 0.436051 5.12055 0.372096 5.11879C0.308142 5.11703 0.244892 5.13251 0.188989 5.16363C0.133112 5.19471 0.0865441 5.24014 0.0540933 5.29523C0.0216425 5.35032 0.00448522 5.41307 0.00439453 5.47701V12.2584C0.00439339 12.8269 0.229947 13.3722 0.631556 13.7746C1.03317 14.177 1.57802 14.4037 2.14655 14.4048H16.4562C17.0255 14.4048 17.5714 14.1787 17.974 13.7761C18.3765 13.3736 18.6027 12.8276 18.6027 12.2584V5.47701C18.6031 5.41364 18.5869 5.35127 18.5554 5.29623C18.524 5.24119 18.4786 5.19544 18.4238 5.16363Z" fill="white"/>
<path d="M16.4561 0.0952148H2.14645C1.57718 0.0952148 1.03122 0.321358 0.62868 0.723895C0.226143 1.12643 5.00468e-08 1.67239 5.00468e-08 2.24166C-1.77765e-05 2.25988 0.00472701 2.27778 0.0137635 2.29359C0.0228 2.30941 0.0358137 2.32258 0.0515145 2.33181L8.73319 7.75804C8.90479 7.86543 9.10314 7.92238 9.30557 7.92238C9.50801 7.92238 9.70636 7.86543 9.87796 7.75804L18.5611 2.33181C18.5746 2.32108 18.5853 2.30733 18.5925 2.29168C18.5997 2.27602 18.6032 2.25889 18.6026 2.24166C18.6026 1.67239 18.3764 1.12643 17.9739 0.723895C17.5713 0.321358 17.0254 0.0952148 16.4561 0.0952148Z" fill="white"/>
</svg>
