<svg width="90" height="90" viewBox="0 0 90 90" fill="none" xmlns="http://www.w3.org/2000/svg">
<rect width="90" height="90" fill="#F2F1FE"/>
<path d="M73.2594 34.8165C73.1535 43.5548 65.7921 50.4395 57.1068 50.4395H43.1255C42.3311 50.4395 41.7485 49.804 41.7485 49.0096V34.8694C41.7485 26.1311 48.6333 18.7698 57.2657 18.6109C66.1628 18.5579 73.4183 25.8134 73.2594 34.8165Z" fill="white"/>
<path d="M56.2534 51.1968H42.2191C40.5774 51.1968 39.2534 49.8728 39.2534 48.1781V34.0909C39.2534 24.3993 46.9325 16.4024 56.3593 16.2436C61.0727 16.1906 65.5213 17.9912 68.8578 21.3277C72.2472 24.7171 74.0478 29.2186 73.9948 33.985C73.8359 43.4647 65.8391 51.1968 56.2534 51.1968ZM42.378 48.0192H56.2004C64.0914 48.0192 70.6584 41.7171 70.7643 33.932C70.8173 30.013 69.3344 26.3059 66.5805 23.552C63.8266 20.7981 60.2254 19.3682 56.3593 19.4211C48.6802 19.5271 42.378 26.147 42.378 34.0909V48.0192Z" fill="#444B54"/>
<path d="M56.2533 39.0162H49.2097C48.3094 39.0162 47.6209 38.3278 47.6209 37.4275C47.6209 36.5271 48.3094 35.8387 49.2097 35.8387H56.2004C57.1007 35.8387 57.7892 36.5271 57.7892 37.4275C57.7892 38.3278 57.1007 39.0162 56.2533 39.0162ZM62.6085 39.0162H62.5025C61.6022 39.0162 60.9138 38.3278 60.9138 37.4275C60.9138 36.5271 61.6022 35.8387 62.5025 35.8387H62.6085C63.5088 35.8387 64.1972 36.5271 64.1972 37.4275C64.1972 38.3278 63.4558 39.0162 62.6085 39.0162ZM63.1381 33.7203H49.1038C48.2035 33.7203 47.515 33.0318 47.515 32.1315C47.515 31.2312 48.2035 30.5427 49.1038 30.5427H63.1381C64.0384 30.5427 64.7268 31.2312 64.7268 32.1315C64.7268 33.0318 63.9854 33.7203 63.1381 33.7203Z" fill="#5D4FFF"/>
<path d="M30.6386 45.5232C31.0277 45.1343 31.3363 44.6725 31.5468 44.1643C31.7574 43.6561 31.8657 43.1114 31.8657 42.5613C31.8657 42.0112 31.7574 41.4665 31.5468 40.9583C31.3363 40.4501 31.0277 39.9884 30.6386 39.5995L26.1957 35.1583C25.4105 34.3732 24.3455 33.9321 23.2352 33.9321C22.1248 33.9321 21.0599 34.3732 20.2746 35.1583L17.8375 37.5935C16.8162 38.6179 16.1796 39.9634 16.0354 41.4028C15.8913 42.8422 16.2482 44.2872 17.0461 45.4939C24.2163 56.2893 33.4702 65.5439 44.2647 72.7148C45.4715 73.5133 46.9168 73.8706 48.3566 73.7264C49.7963 73.5821 51.1421 72.9453 52.1665 71.9233L54.6036 69.486C55.3887 68.7006 55.8297 67.6356 55.8297 66.5252C55.8297 65.4147 55.3887 64.3497 54.6036 63.5644L50.1607 59.1253C49.3754 58.3402 48.3105 57.8991 47.2002 57.8991C46.0898 57.8991 45.0249 58.3402 44.2396 59.1253L42.7593 60.6057C37.7933 56.5198 33.2355 51.9616 29.15 46.9952L30.6386 45.5232Z" fill="#5D4FFF"/>
</svg>
