<svg width="16" height="21" viewBox="0 0 16 21" fill="none" xmlns="http://www.w3.org/2000/svg">
<path d="M7.97488 0.932617C5.8691 0.935051 3.85027 1.77265 2.36126 3.26165C0.872255 4.75066 0.0346606 6.76949 0.0322266 8.87527C0.0322266 14.349 5.49844 19.3161 7.17309 20.7081C7.39825 20.8952 7.68174 20.9976 7.97446 20.9976C8.26718 20.9976 8.55067 20.8952 8.77583 20.7081C10.448 19.3161 15.9175 14.3473 15.9175 8.87443C15.9149 6.7688 15.0772 4.75019 13.5882 3.26136C12.0992 1.77253 10.0805 0.935051 7.97488 0.932617V0.932617ZM7.97488 13.0556C7.14808 13.0556 6.33986 12.8104 5.6524 12.3511C4.96495 11.8918 4.42914 11.2389 4.11274 10.475C3.79634 9.71116 3.71356 8.87063 3.87486 8.05972C4.03616 7.24882 4.4343 6.50395 5.01893 5.91932C5.60356 5.33469 6.34843 4.93655 7.15933 4.77525C7.97024 4.61395 8.81077 4.69673 9.57463 5.01314C10.3385 5.32954 10.9914 5.86534 11.4507 6.55279C11.91 7.24025 12.1552 8.04847 12.1552 8.87527C12.1552 9.42424 12.0471 9.96783 11.837 10.475C11.6269 10.9822 11.319 11.443 10.9308 11.8312C10.5426 12.2194 10.0818 12.5273 9.57463 12.7374C9.06744 12.9475 8.52385 13.0556 7.97488 13.0556V13.0556Z" fill="#5D4FFF"/>
</svg>
