<svg width="213" height="213" viewBox="0 0 213 213" fill="none" xmlns="http://www.w3.org/2000/svg">
<path d="M67.8701 87.185V67.87C67.8701 57.6248 71.94 47.7991 79.1845 40.5546C86.429 33.3101 96.2547 29.2402 106.5 29.2402C116.745 29.2402 126.571 33.3101 133.815 40.5546C141.06 47.7991 145.13 57.6248 145.13 67.87V87.185" stroke="#5D4FFF" stroke-width="5.325" stroke-miterlimit="10" stroke-linecap="round" stroke-linejoin="round"/>
<path d="M145.13 87.1846H67.8701C57.2028 87.1846 48.5552 95.8321 48.5552 106.499V164.444C48.5552 175.112 57.2028 183.759 67.8701 183.759H145.13C155.797 183.759 164.445 175.112 164.445 164.444V106.499C164.445 95.8321 155.797 87.1846 145.13 87.1846Z" fill="white" stroke="#181443" stroke-width="5.325" stroke-miterlimit="10" stroke-linecap="round" stroke-linejoin="round"/>
<path d="M106.5 127.132C104.851 127.132 103.238 127.621 101.867 128.538C100.496 129.454 99.4266 130.757 98.7955 132.28C98.1643 133.804 97.9991 135.481 98.3209 137.099C98.6427 138.717 99.4369 140.202 100.603 141.369C101.77 142.535 103.256 143.329 104.873 143.651C106.491 143.973 108.168 143.808 109.692 143.177C111.215 142.545 112.518 141.476 113.434 140.105C114.351 138.734 114.84 137.121 114.84 135.472C114.843 134.376 114.629 133.29 114.211 132.277C113.793 131.264 113.179 130.343 112.404 129.568C111.629 128.793 110.708 128.179 109.695 127.761C108.682 127.343 107.596 127.129 106.5 127.132Z" fill="white" stroke="#5D4FFF" stroke-width="5.325" stroke-miterlimit="10" stroke-linecap="round" stroke-linejoin="round"/>
<circle cx="106.5" cy="135.472" r="9.6366" fill="#5D4FFF"/>
</svg>
