<svg width="354" height="409" viewBox="0 0 354 409" fill="none" xmlns="http://www.w3.org/2000/svg">
<path opacity="0.7" d="M353.649 343.568C328.136 370.927 295.6 390.754 259.59 400.887C223.579 411.02 185.478 411.069 149.441 401.029C113.405 390.99 80.8178 371.246 55.2344 343.953C29.6511 316.66 12.0542 282.865 4.36336 246.256C-3.3275 209.646 -0.816951 171.627 11.6211 136.347C24.0592 101.066 45.9471 69.8787 74.8973 46.1867C103.847 22.4947 138.748 7.20787 175.792 1.99381C212.835 -3.22024 250.599 1.83871 284.965 16.6188L252.21 92.7766C231.793 83.9952 209.355 80.9895 187.347 84.0873C165.338 87.1852 144.602 96.2676 127.402 110.344C110.202 124.42 97.1972 142.95 89.8073 163.911C82.4174 184.872 80.9258 207.461 85.4952 229.212C90.0646 250.963 100.519 271.041 115.719 287.257C130.919 303.473 150.281 315.203 171.691 321.168C193.102 327.133 215.739 327.104 237.134 321.084C258.529 315.063 277.86 303.283 293.018 287.028L353.649 343.568Z" fill="#F2F1FE"/>
</svg>
