<svg width="227" height="228" viewBox="0 0 227 228" fill="none" xmlns="http://www.w3.org/2000/svg">
<g clip-path="url(#clip0)">
<path opacity="0.7" d="M226.902 121.969C224.921 148.952 213.37 174.341 194.33 193.564C175.29 212.786 150.012 224.579 123.049 226.818C96.0859 229.057 69.2094 221.595 47.2597 205.776C25.31 189.957 9.72965 166.821 3.32462 140.534C-3.08042 114.247 0.110777 86.5374 12.3235 62.3946C24.5362 38.2519 44.9678 19.263 69.9387 8.84774C94.9096 -1.5675 122.779 -2.72461 148.527 5.58481C174.275 13.8942 196.211 31.1241 210.383 54.1714L171.12 78.3146C162.7 64.6222 149.668 54.3859 134.371 49.4493C119.074 44.5127 102.517 45.2001 87.682 51.3878C72.8467 57.5755 60.7083 68.8568 53.4527 83.2C46.1972 97.5432 44.3013 114.006 48.1065 129.623C51.9117 145.24 61.168 158.985 74.2083 168.383C87.2487 177.781 103.216 182.214 119.235 180.884C135.254 179.554 150.271 172.548 161.583 161.128C172.894 149.708 179.757 134.624 180.934 118.593L226.902 121.969Z" fill="#F2F1FE"/>
</g>
<defs>
<clipPath id="clip0">
<rect width="227" height="228" fill="white"/>
</clipPath>
</defs>
</svg>
