<svg width="284" height="284" viewBox="0 0 284 284" fill="none" xmlns="http://www.w3.org/2000/svg">
<path opacity="0.7" d="M7.3427e-05 141.746C8.02708e-05 63.4617 63.4618 4.17995e-05 141.746 4.86434e-05C220.03 5.54872e-05 283.491 63.4618 283.491 141.746C283.491 220.03 220.03 283.491 141.746 283.491C63.4618 283.491 6.65832e-05 220.03 7.3427e-05 141.746ZM221.396 141.746C221.396 97.7561 185.735 62.0954 141.746 62.0954C97.7561 62.0954 62.0954 97.7561 62.0954 141.746C62.0954 185.735 97.7561 221.396 141.746 221.396C185.735 221.396 221.396 185.735 221.396 141.746Z" fill="#F2F1FE"/>
</svg>
