<svg width="255" height="267" viewBox="0 0 255 267" fill="none" xmlns="http://www.w3.org/2000/svg">
<path opacity="0.7" d="M0.443368 189.618C13.0611 216.742 34.4317 238.837 61.1208 252.35C87.8099 265.864 118.267 270.012 147.598 264.128C176.929 258.244 203.43 242.67 222.842 219.908C242.254 197.146 253.45 168.518 254.629 138.626C255.809 108.734 246.905 79.3137 229.347 55.0927C211.79 30.8717 186.599 13.2569 157.823 5.07947C129.047 -3.098 98.3573 -1.36331 70.6861 10.0048C43.015 21.3728 19.9694 41.714 5.25311 67.7593L52.3796 94.387C61.123 78.9127 74.8152 66.8272 91.2556 60.0731C107.696 53.3189 125.93 52.2883 143.027 57.1468C160.123 62.0053 175.09 72.4708 185.522 86.8614C195.953 101.252 201.244 118.732 200.543 136.492C199.842 154.252 193.19 171.26 181.657 184.784C170.123 198.307 154.378 207.561 136.952 211.056C119.525 214.552 101.429 212.088 85.5725 204.059C69.7156 196.03 57.0185 182.903 49.5219 166.788L0.443368 189.618Z" fill="#F2F1FE"/>
</svg>
