<svg width="485" height="485" viewBox="0 0 485 485" fill="none" xmlns="http://www.w3.org/2000/svg">
<path opacity="0.7" d="M5.17119e-05 242.435C6.34173e-05 108.542 108.542 -2.38212e-06 242.435 9.32321e-06C376.329 2.10285e-05 484.871 108.542 484.871 242.435C484.871 376.329 376.329 484.871 242.435 484.871C108.542 484.871 4.00066e-05 376.329 5.17119e-05 242.435ZM413.326 242.435C413.326 148.055 336.815 71.545 242.435 71.545C148.055 71.545 71.5451 148.055 71.5451 242.435C71.5451 336.815 148.055 413.326 242.435 413.326C336.815 413.326 413.326 336.815 413.326 242.435Z" fill="#F2F1FE"/>
</svg>
