<svg width="332" height="332" viewBox="0 0 332 332" fill="none" xmlns="http://www.w3.org/2000/svg">
<path opacity="0.7" d="M4.50279e-05 165.979C5.30418e-05 74.3113 74.3114 7.99339e-06 165.979 1.60072e-05C257.647 2.40211e-05 331.958 74.3114 331.958 165.979C331.958 257.647 257.647 331.958 165.979 331.958C74.3114 331.958 3.70141e-05 257.647 4.50279e-05 165.979ZM278.041 165.979C278.041 104.089 227.869 53.9168 165.979 53.9168C104.089 53.9168 53.9169 104.089 53.9169 165.979C53.9169 227.869 104.089 278.041 165.979 278.041C227.869 278.041 278.041 227.869 278.041 165.979Z" fill="#F2F1FE"/>
</svg>
