<svg width="256" height="256" viewBox="0 0 256 256" fill="none" xmlns="http://www.w3.org/2000/svg">
<path fill-rule="evenodd" clip-rule="evenodd" d="M118.699 46.886C124.699 49.5265 131.421 49.5265 137.301 46.886C140.902 45.3258 144.142 43.2855 147.503 41.4852C157.104 36.2044 171.867 27.9231 183.029 27.9231C197.791 27.9231 211.233 33.924 221.074 44.9658C230.916 56.0075 236.077 70.4098 236.077 85.1721C236.077 115.417 223.115 153.823 211.113 181.427C205.232 194.989 198.511 208.791 190.11 220.913C188.789 222.834 185.309 227.634 182.308 230.635C179.788 223.074 177.748 215.272 175.587 207.591C173.067 198.35 170.667 189.108 167.546 179.987L183.629 165.585C194.67 155.743 202.472 142.781 205.952 128.379C207.272 122.978 208.112 116.257 207.272 110.616C205.592 93.3333 196.591 77.0108 180.868 68.9695C174.747 65.849 167.906 64.1688 161.065 64.1688C148.103 64.1688 135.981 69.6896 127.34 79.1711C118.939 69.8097 107.177 64.1688 94.3347 64.1688C87.3736 64.1688 80.6526 65.729 74.5316 68.9695C58.8092 77.0108 49.8078 93.3333 48.1275 110.616C47.2874 116.137 48.2475 122.978 49.4477 128.379C52.8082 142.781 60.7295 155.623 71.6512 165.585L87.9737 180.467C84.6132 190.308 82.0928 200.03 80.0525 207.111C77.7721 215.032 75.6118 223.074 72.9714 230.875C69.8509 227.874 66.3703 223.074 65.0501 221.153C56.7688 209.151 50.0478 195.469 44.1669 182.147C31.9249 154.063 19.323 115.897 19.323 85.052C19.323 70.2897 24.3638 55.8875 34.3253 44.8458C44.1669 33.804 57.609 27.8031 72.3713 27.8031C83.653 27.8031 98.2953 35.9644 108.017 41.3652C111.977 43.4055 115.218 45.3258 118.699 46.886ZM160.345 161.744C154.104 149.022 144.263 136.54 128.54 136.54H127.58C113.298 136.54 103.336 147.942 96.135 162.224L84.8532 151.902C76.692 144.461 70.811 135.1 68.2906 124.298C67.4505 120.578 66.9704 116.977 67.2105 113.376C67.2105 113.256 67.2105 113.016 67.2105 112.896C68.1706 101.855 73.8115 90.6929 84.1331 85.7721C87.4936 84.2119 90.9742 83.3718 94.6948 83.3718C105.857 83.3718 114.738 90.4529 118.939 100.534L120.139 103.295C121.459 106.295 124.339 108.216 127.58 108.216C130.82 108.216 133.821 106.295 135.021 103.295L136.221 100.534C140.542 90.3329 150.263 83.3718 161.305 83.3718C164.906 83.3718 168.386 84.0919 171.627 85.6521C182.188 90.5729 187.829 101.975 188.789 113.136C188.789 113.256 188.789 113.496 188.789 113.616C189.27 116.617 188.429 121.418 187.709 124.298C185.189 134.98 179.428 144.581 171.147 151.902L160.345 161.744ZM151.584 194.749L133.101 211.312C129.98 214.072 125.3 214.072 122.299 211.312L104.896 195.589C102.616 203.03 100.936 209.511 99.8556 212.872C97.2152 222.233 94.5747 231.715 91.2142 240.836C88.6938 247.797 83.533 253.318 75.7318 253.318C64.5701 253.318 54.9686 240.956 49.2077 232.795C40.2063 219.833 32.7651 204.831 26.4041 190.308C13.202 159.824 0 118.777 0 85.2921C0 65.609 6.84105 46.526 20.0431 31.7637C33.7252 16.5213 52.4482 8 72.9714 8C88.8138 8 104.776 16.5213 118.218 24.0825C120.139 25.1627 124.099 27.5631 126.86 28.7632C127.58 29.1233 128.42 29.1233 129.14 28.7632C131.901 27.5631 135.981 25.1627 137.902 24.0825C151.344 16.6414 167.306 8 183.029 8C203.552 8 222.275 16.4013 235.957 31.7637C249.039 46.526 256 65.609 256 85.2921C256 118.297 242.438 159.464 229.476 189.468C223.115 203.991 215.674 219.233 206.672 232.315C201.031 240.596 191.31 253.198 180.148 253.198C172.347 253.198 167.306 247.677 164.786 240.716C161.545 231.715 159.025 222.233 156.504 212.992C155.064 207.111 153.384 200.99 151.584 194.749ZM127.7 190.909L144.863 175.666C144.263 174.226 143.662 172.906 143.062 171.586C140.662 166.545 135.381 156.463 128.66 156.463H127.7C121.819 156.463 116.298 165.465 111.737 176.266L127.7 190.909Z" fill="#5D4FFF"/>
</svg>
